<svg xmlns="http://www.w3.org/2000/svg" width="380" height="100" viewBox="0 0 380 100" fill="none">
   <path d="M0 12C0 5.37258 5.37258 0 12 0H88C94.6274 0 100 5.37258 100 12V88C100 94.6274 94.6274 100 88 100H12C5.37258 100 0 94.6274 0 88V12Z" fill="#10B981" />
   <path d="M45 21H21V80H45V21Z" fill="#D1FAE5" />
   <path d="M78 38H54V80H78V38Z" fill="#D1FAE5" />
   <path d="M280 12C280 5.37258 285.373 0 292 0H368C374.627 0 380 5.37258 380 12V88C380 94.6274 374.627 100 368 100H292C285.373 100 280 94.6274 280 88V12Z" fill="#DB2777" />
   <path d="M301 80V21C340.383 19.0885 319.873 52.3176 358 50.5V80H301Z" fill="#FCE7F3" />
   <path d="M140 12C140 5.37258 145.373 0 152 0H228C234.627 0 240 5.37258 240 12V88C240 94.6274 234.627 100 228 100H152C145.373 100 140 94.6274 140 88V12Z" fill="#2563EB" />
   <circle cx="189.5" cy="49.5" r="37.5" fill="#DBEAFE" />
   <mask id="mask0" mask-type="alpha" maskUnits="userSpaceOnUse" x="152" y="12" width="75" height="75">
      <circle cx="189.5" cy="49.5" r="37.5" fill="white" />
   </mask>
   <g mask="url(#mask0)">
      <rect x="188.5" y="-2.5" width="55" height="55" fill="#DBEAFE" stroke="#2563EB" stroke-width="5" />
   </g>
</svg>
